<svg xmlns="http://www.w3.org/2000/svg" width="450" height="300"><path fill="#2c5bae" d="M0 0h450v300H0z"/><path fill="#ffaa24" d="M125.313 69.281c-55.521 0-86.937 43.304-86.937 80.719s31.417 80.719 86.938 80.719c26.668 0 53.245-10.106 79.5-23.719-10.01-3.968-19.353-7.088-28.875-8.781-17.86 7.645-34.934 12.5-50.625 12.5-45.234 0-66.937-34.417-66.937-60.719s21.704-60.719 66.938-60.719c15.674 0 32.728 4.874 50.563 12.5 9.537-1.689 18.915-4.841 28.938-8.812-26.247-13.602-52.845-23.687-79.5-23.687zm199.375 0c-40.653 0-70.191 10.981-95.062 21.438s-44.827 19.906-68.75 19.906h-72.25c-7.359 5.584-12.585 12.679-15.875 20h88.125c29.121 0 52.18-11.245 76.5-21.469s50.205-19.875 87.313-19.875c45.234 0 66.937 34.417 66.938 60.719 0 3.823-.515 7.808-1.437 11.844h20.375c.676-3.976 1.063-7.94 1.063-11.844 0-37.415-31.417-80.719-86.937-80.719zM0 110.625v20h30.75c1.66-6.813 4.175-13.546 7.5-20H0zm408.938 0c3.432 6.442 5.976 13.18 7.688 20H450v-20h-41.062zm-43.562.031c-40.638.959-81.652 26.899-122.5 51.438l-22.625 13.344 20.063 8.469 3 1.25 9.813-5.906c41.685-25.041 82.215-48.625 114.563-48.625h12.25c-3.069-7.191-7.861-14.213-14.562-19.969zm-122.125 4.188-2.937 1.219-20.062 8.469 22.625 13.344 10.438 6.25L273 132.531l-19.875-11.781-9.875-5.906zm73.438 40.75c-7.374 3.468-14.994 7.394-22.812 11.656 24.654 12.76 49.321 22.094 73.813 22.094H450v-20h-82.312c-15.385 0-32.669-5.432-51-13.75zM0 169.344v20h38.25c-3.323-6.456-5.843-13.185-7.5-20H0zm72.75 0a51.75 51.75 0 0 0 15.875 20h72.25c23.923 0 43.878 9.45 68.75 19.906s54.409 21.469 95.063 21.469c32.073 0 56.049-14.456 70.625-33.875h-27.437c-10.691 8.333-25.04 13.875-43.187 13.875-37.107 0-62.992-9.682-87.312-19.906s-47.379-21.469-76.5-21.469H72.75z"/></svg>